HIERARCHY
ROOT mixamorig:Hips
{
	OFFSET 0.000000 201.639420 0.000000
	CHANNELS 6 Xposition Yposition Zposition Xrotation Yrotation Zrotation
	JOINT mixamorig:Spine
	{
		OFFSET 0.006200 19.524994 -2.481800
		CHANNELS 3 Xrotation Yrotation Zrotation
		JOINT mixamorig:Spine1
		{
			OFFSET -0.000900 22.835007 -2.825400
			CHANNELS 3 Xrotation Yrotation Zrotation
			JOINT mixamorig:Spine2
			{
				OFFSET -0.020600 26.552490 -3.193300
				CHANNELS 3 Xrotation Yrotation Zrotation
				JOINT mixamorig:Neck
				{
					OFFSET -0.060000 30.701813 1.352200
					CHANNELS 3 Xrotation Yrotation Zrotation
					JOINT mixamorig:Head
					{
						OFFSET -0.087200 22.547607 3.670900
						CHANNELS 3 Xrotation Yrotation Zrotation
						JOINT mixamorig:HeadTop_End
						{
							OFFSET -0.830600 40.355194 7.893500
							CHANNELS 3 Xrotation Yrotation Zrotation
							End Site
							{
								OFFSET 0.000000 30.592346 0.000000
							}
						}
						JOINT mixamorig:RightEye
						{
							OFFSET -6.302100 18.118591 16.197100
							CHANNELS 3 Xrotation Yrotation Zrotation
							End Site
							{
								OFFSET 0.000000 30.592346 0.000000
							}
						}
						JOINT mixamorig:LeftEye
						{
							OFFSET 6.741500 18.382690 16.401899
							CHANNELS 3 Xrotation Yrotation Zrotation
							End Site
							{
								OFFSET 0.000000 30.592346 0.000000
							}
						}
					}
				}
				JOINT mixamorig:LeftShoulder
				{
					OFFSET 11.924900 18.230499 1.425400
					CHANNELS 3 Xrotation Yrotation Zrotation
					JOINT mixamorig:LeftArm
					{
						OFFSET 25.435989 -0.697632 -5.229300
						CHANNELS 3 Xrotation Yrotation Zrotation
						JOINT mixamorig:LeftForeArm
						{
							OFFSET 54.684776 0.000000 0.000000
							CHANNELS 3 Xrotation Yrotation Zrotation
							JOINT mixamorig:LeftHand
							{
								OFFSET 55.098175 0.000000 0.000000
								CHANNELS 3 Xrotation Yrotation Zrotation
								JOINT mixamorig:LeftHandMiddle1
								{
									OFFSET 23.369751 0.000000 0.000000
									CHANNELS 3 Xrotation Yrotation Zrotation
									JOINT mixamorig:LeftHandMiddle2
									{
										OFFSET 6.378677 0.000000 0.000000
										CHANNELS 3 Xrotation Yrotation Zrotation
										JOINT mixamorig:LeftHandMiddle3
										{
											OFFSET 6.148331 0.000000 0.000000
											CHANNELS 3 Xrotation Yrotation Zrotation
											JOINT mixamorig:LeftHandMiddle4
											{
												OFFSET 6.582504 0.000000 0.000000
												CHANNELS 3 Xrotation Yrotation Zrotation
												End Site
												{
													OFFSET -1.168900 6.395691 1.028606
												}
											}
										}
									}
								}
								JOINT mixamorig:LeftHandThumb1
								{
									OFFSET 7.235672 -3.848206 5.434273
									CHANNELS 3 Xrotation Yrotation Zrotation
									JOINT mixamorig:LeftHandThumb2
									{
										OFFSET 6.568451 -3.792297 3.792300
										CHANNELS 3 Xrotation Yrotation Zrotation
										JOINT mixamorig:LeftHandThumb3
										{
											OFFSET 6.063080 -3.500519 3.500518
											CHANNELS 3 Xrotation Yrotation Zrotation
											JOINT mixamorig:LeftHandThumb4
											{
												OFFSET 4.793182 -2.767334 2.767349
												CHANNELS 3 Xrotation Yrotation Zrotation
												End Site
												{
													OFFSET 0.101639 6.054260 1.275483
												}
											}
										}
									}
								}
								JOINT mixamorig:LeftHandIndex1
								{
									OFFSET 23.101074 -0.309540 4.992809
									CHANNELS 3 Xrotation Yrotation Zrotation
									JOINT mixamorig:LeftHandIndex2
									{
										OFFSET 6.226883 0.000000 0.000000
										CHANNELS 3 Xrotation Yrotation Zrotation
										JOINT mixamorig:LeftHandIndex3
										{
											OFFSET 6.094330 0.000000 0.000000
											CHANNELS 3 Xrotation Yrotation Zrotation
											JOINT mixamorig:LeftHandIndex4
											{
												OFFSET 5.482605 0.000000 0.000000
												CHANNELS 3 Xrotation Yrotation Zrotation
												End Site
												{
													OFFSET -1.427902 5.233032 0.797164
												}
											}
										}
									}
								}
								JOINT mixamorig:LeftHandRing1
								{
									OFFSET 22.299240 0.021149 -3.964172
									CHANNELS 3 Xrotation Yrotation Zrotation
									JOINT mixamorig:LeftHandRing2
									{
										OFFSET 6.321869 0.000000 0.000000
										CHANNELS 3 Xrotation Yrotation Zrotation
										JOINT mixamorig:LeftHandRing3
										{
											OFFSET 5.899796 0.000000 0.000000
											CHANNELS 3 Xrotation Yrotation Zrotation
											JOINT mixamorig:LeftHandRing4
											{
												OFFSET 6.517899 0.000000 0.000000
												CHANNELS 3 Xrotation Yrotation Zrotation
												End Site
												{
													OFFSET -1.637299 6.232208 0.980890
												}
											}
										}
									}
								}
								JOINT mixamorig:LeftHandPinky1
								{
									OFFSET 20.463791 -0.302338 -8.562233
									CHANNELS 3 Xrotation Yrotation Zrotation
									JOINT mixamorig:LeftHandPinky2
									{
										OFFSET 6.908646 0.000000 0.000000
										CHANNELS 3 Xrotation Yrotation Zrotation
										JOINT mixamorig:LeftHandPinky3
										{
											OFFSET 4.622849 0.000000 0.000000
											CHANNELS 3 Xrotation Yrotation Zrotation
											JOINT mixamorig:LeftHandPinky4
											{
												OFFSET 5.216080 0.000000 0.000000
												CHANNELS 3 Xrotation Yrotation Zrotation
												End Site
												{
													OFFSET -0.606308 5.116241 0.814926
												}
											}
										}
									}
								}
							}
						}
					}
				}
				JOINT mixamorig:RightShoulder
				{
					OFFSET -12.001300 18.284088 1.348900
					CHANNELS 3 Xrotation Yrotation Zrotation
					JOINT mixamorig:RightArm
					{
						OFFSET -25.308500 -0.751312 -5.164599
						CHANNELS 3 Xrotation Yrotation Zrotation
						JOINT mixamorig:RightForeArm
						{
							OFFSET -54.684429 0.000000 0.000000
							CHANNELS 3 Xrotation Yrotation Zrotation
							JOINT mixamorig:RightHand
							{
								OFFSET -55.150291 0.000000 0.000000
								CHANNELS 3 Xrotation Yrotation Zrotation
								JOINT mixamorig:RightHandMiddle1
								{
									OFFSET -23.317566 0.000000 0.000000
									CHANNELS 3 Xrotation Yrotation Zrotation
									JOINT mixamorig:RightHandMiddle2
									{
										OFFSET -6.378403 0.000000 0.000000
										CHANNELS 3 Xrotation Yrotation Zrotation
										JOINT mixamorig:RightHandMiddle3
										{
											OFFSET -6.148193 0.000000 0.000000
											CHANNELS 3 Xrotation Yrotation Zrotation
											JOINT mixamorig:RightHandMiddle4
											{
												OFFSET -6.583389 0.000000 0.000000
												CHANNELS 3 Xrotation Yrotation Zrotation
												End Site
												{
													OFFSET 1.171692 6.395905 1.029786
												}
											}
										}
									}
								}
								JOINT mixamorig:RightHandThumb1
								{
									OFFSET -7.190521 -3.860474 5.435846
									CHANNELS 3 Xrotation Yrotation Zrotation
									JOINT mixamorig:RightHandThumb2
									{
										OFFSET -6.567429 -3.791718 3.791708
										CHANNELS 3 Xrotation Yrotation Zrotation
										JOINT mixamorig:RightHandThumb3
										{
											OFFSET -6.062469 -3.500153 3.500166
											CHANNELS 3 Xrotation Yrotation Zrotation
											JOINT mixamorig:RightHandThumb4
											{
												OFFSET -4.792618 -2.767029 2.767022
												CHANNELS 3 Xrotation Yrotation Zrotation
												End Site
												{
													OFFSET -0.100327 6.053253 1.276754
												}
											}
										}
									}
								}
								JOINT mixamorig:RightHandIndex1
								{
									OFFSET -23.048981 -0.310791 4.992554
									CHANNELS 3 Xrotation Yrotation Zrotation
									JOINT mixamorig:RightHandIndex2
									{
										OFFSET -6.227539 0.000000 0.000000
										CHANNELS 3 Xrotation Yrotation Zrotation
										JOINT mixamorig:RightHandIndex3
										{
											OFFSET -6.095047 0.000000 0.000000
											CHANNELS 3 Xrotation Yrotation Zrotation
											JOINT mixamorig:RightHandIndex4
											{
												OFFSET -5.484772 0.000000 0.000000
												CHANNELS 3 Xrotation Yrotation Zrotation
												End Site
												{
													OFFSET 1.420593 5.237305 0.797056
												}
											}
										}
									}
								}
								JOINT mixamorig:RightHandRing1
								{
									OFFSET -22.246323 0.020569 -3.963762
									CHANNELS 3 Xrotation Yrotation Zrotation
									JOINT mixamorig:RightHandRing2
									{
										OFFSET -6.322128 0.000000 0.000000
										CHANNELS 3 Xrotation Yrotation Zrotation
										JOINT mixamorig:RightHandRing3
										{
											OFFSET -5.900024 0.000000 0.000000
											CHANNELS 3 Xrotation Yrotation Zrotation
											JOINT mixamorig:RightHandRing4
											{
												OFFSET -6.518356 0.000000 0.000000
												CHANNELS 3 Xrotation Yrotation Zrotation
												End Site
												{
													OFFSET 1.636398 6.232697 0.982186
												}
											}
										}
									}
								}
								JOINT mixamorig:RightHandPinky1
								{
									OFFSET -20.411011 -0.303314 -8.561701
									CHANNELS 3 Xrotation Yrotation Zrotation
									JOINT mixamorig:RightHandPinky2
									{
										OFFSET -6.907349 0.000000 0.000000
										CHANNELS 3 Xrotation Yrotation Zrotation
										JOINT mixamorig:RightHandPinky3
										{
											OFFSET -4.623840 0.000000 0.000000
											CHANNELS 3 Xrotation Yrotation Zrotation
											JOINT mixamorig:RightHandPinky4
											{
												OFFSET -5.218353 0.000000 0.000000
												CHANNELS 3 Xrotation Yrotation Zrotation
												End Site
												{
													OFFSET 0.602097 5.118835 0.816273
												}
											}
										}
									}
								}
							}
						}
					}
				}
			}
		}
	}
	JOINT mixamorig:LeftUpLeg
	{
		OFFSET 18.168400 -13.561905 -0.039000
		CHANNELS 3 Xrotation Yrotation Zrotation
		JOINT mixamorig:LeftLeg
		{
			OFFSET 0.577358 -80.825211 -3.695000
			CHANNELS 3 Xrotation Yrotation Zrotation
			JOINT mixamorig:LeftFoot
			{
				OFFSET -0.577356 -83.370262 -6.520700
				CHANNELS 3 Xrotation Yrotation Zrotation
				JOINT mixamorig:LeftToeBase
				{
					OFFSET 0.750401 -20.798306 25.135401
					CHANNELS 3 Xrotation Yrotation Zrotation
					JOINT mixamorig:LeftToe_End
					{
						OFFSET -0.000500 0.001200 19.917799
						CHANNELS 3 Xrotation Yrotation Zrotation
						End Site
						{
							OFFSET 0.000000 19.917805 0.000000
						}
					}
				}
			}
		}
	}
	JOINT mixamorig:RightUpLeg
	{
		OFFSET -18.162500 -13.585098 -0.041000
		CHANNELS 3 Xrotation Yrotation Zrotation
		JOINT mixamorig:RightLeg
		{
			OFFSET -0.595024 -80.945297 -3.631900
			CHANNELS 3 Xrotation Yrotation Zrotation
			JOINT mixamorig:RightFoot
			{
				OFFSET 0.595024 -83.218193 -6.561200
				CHANNELS 3 Xrotation Yrotation Zrotation
				JOINT mixamorig:RightToeBase
				{
					OFFSET -0.753601 -20.807106 25.115000
					CHANNELS 3 Xrotation Yrotation Zrotation
					JOINT mixamorig:RightToe_End
					{
						OFFSET 0.000299 0.001700 19.918200
						CHANNELS 3 Xrotation Yrotation Zrotation
						End Site
						{
							OFFSET 0.000000 19.918203 0.000000
						}
					}
				}
			}
		}
	}
}
MOTION
Frames: 4
Frame Time: 0.033333
52.120827 155.287704 627.936646 -7.326069 8.828156 1.267597 24.731338 4.139867 1.717202 2.895332 0.945952 -0.087997 2.902771 0.929989 -0.112158 -4.924035 -1.660665 1.176776 -43.382408 -11.523833 -7.667698 0.000000 0.000000 0.000000 0.000000 0.000000 0.000000 0.000000 0.000000 0.000000 0.497371 -1.663778 -3.818608 25.073904 3.217137 -77.730210 -217.010464 -123.293971 -212.514984 -5.703978 0.787204 7.688688 6.861312 7.767378 -64.318587 4.927962 5.784109 -80.883722 3.887725 5.517089 -70.347212 0.000002 -0.000001 0.000002 22.595599 -7.371195 7.455884 21.389560 18.667802 -3.094747 -19.364524 -18.020995 14.745458 0.000001 0.000000 0.000001 4.838550 8.082965 -40.678872 3.988838 5.547762 -71.411554 3.098551 5.165159 -61.896561 0.000000 0.000001 -0.000000 -5.937844 7.215658 -89.883964 5.830952 5.852763 -89.818388 4.348714 5.655541 -75.133768 -0.000001 -0.000002 0.000001 7.275410 15.942032 -89.646281 6.276448 5.835622 -94.176438 4.680545 5.733191 -78.440064 0.000000 -0.000001 -0.000000 0.468297 -2.020030 7.477019 20.760070 -27.868410 78.902277 -426.323688 46.938583 396.506552 -6.700746 -6.752109 -54.371769 -2.760141 -9.540162 55.664023 3.819443 -4.581383 79.626257 2.712798 -4.232673 65.299136 0.000000 0.000000 -0.000000 17.214566 -15.218628 -25.317061 19.800797 -8.435508 9.688222 -24.070533 -21.666564 -36.685820 0.000002 0.000001 -0.000002 6.862308 -9.697679 58.624224 3.743706 -4.566883 78.676847 3.140880 -4.403948 70.979900 0.000002 0.000002 -0.000003 -6.695532 -6.135687 83.125117 4.317815 -4.644815 85.816587 2.860569 -4.297361 67.286140 -0.000001 -0.000002 -0.000001 -7.402358 -8.427731 101.020574 4.107232 -4.624649 83.211068 2.245490 -3.985265 58.784522 0.000001 0.000000 0.000001 -37.819031 -4.288385 37.346597 63.515992 -14.545682 -3.339101 -14.724406 4.273111 -22.144597 -0.827619 -6.751140 1.541127 0.000000 0.000000 -0.000000 -27.181211 0.641276 -34.510545 74.226842 0.203841 1.870838 -31.155136 -4.477283 13.402519 -2.461106 -0.180174 1.880520 -0.000000 0.000001 -0.000000 
54.437160 155.164978 627.528442 -8.137726 8.789804 5.672553 26.150829 0.800459 0.320384 3.092136 0.332450 -1.156264 3.091690 0.381417 -1.186355 -5.635800 -1.420649 0.390579 -43.123349 -10.870265 -6.134202 -0.000000 0.000000 0.000000 -0.000000 0.000000 0.000000 -0.000000 0.000000 0.000000 0.516554 -0.968019 -6.331067 17.354809 10.669249 -74.575427 -214.110844 -133.968696 -206.348484 -5.145134 -4.039405 15.705489 5.183591 7.694795 -54.920868 4.782232 5.759051 -79.434636 3.749175 5.465949 -68.899472 -0.000000 0.000002 0.000002 36.889780 -8.479030 9.247268 16.881268 22.237281 -1.030114 -18.687220 -16.740630 9.690027 -0.000001 0.000000 -0.000001 4.507882 8.158563 -32.821101 3.451554 5.337956 -65.751793 2.603826 4.869848 -56.244443 -0.000000 -0.000001 -0.000002 -6.457799 5.696813 -82.766006 5.771699 5.852275 -89.237316 4.291570 5.640101 -74.553154 0.000001 0.000001 -0.000001 6.163053 16.117170 -78.429362 6.183270 5.841657 -93.260400 4.589236 5.713846 -77.524409 0.000003 0.000001 0.000001 0.289352 -2.941117 4.774810 23.370115 -19.297885 81.457253 -417.967252 46.897349 395.314055 -8.516326 -15.572058 -43.848930 -4.610279 -8.079368 46.356856 3.704205 -4.558853 78.179875 2.606764 -4.182417 63.854141 0.000003 -0.000002 0.000005 30.801022 -14.075903 -26.728151 15.629525 -11.893706 7.495217 -19.848349 -22.669345 -31.381987 -0.000001 0.000001 0.000005 6.266151 -10.200614 50.740960 3.298621 -4.454998 73.022249 2.714942 -4.233652 65.328239 0.000001 -0.000001 -0.000001 -7.095083 -4.680148 76.006973 4.270853 -4.641162 85.236642 2.817244 -4.279016 66.706749 -0.000002 -0.000001 -0.000000 -6.788097 -6.258913 90.367993 4.033584 -4.615335 82.296840 2.182372 -3.946402 57.871865 0.000002 0.000000 0.000001 -37.629599 -0.291784 33.662099 63.827203 -15.391616 -3.640889 -15.762600 4.311305 -21.031520 0.006290 -7.487473 2.804516 0.000000 0.000001 0.000000 -25.684318 4.306608 -38.360941 74.675080 -1.637022 1.607189 -30.842843 -4.539599 13.730018 -2.525146 -0.584638 1.702390 0.000001 0.000001 0.000000 
56.389103 155.503204 627.398560 -8.496721 8.778175 9.635467 26.767919 -2.338871 -0.809770 3.126395 -0.204218 -2.315695 3.126324 -0.077344 -2.356765 -6.255490 -1.277785 -0.146524 -42.378786 -10.521264 -4.565847 0.000000 0.000000 0.000000 0.000000 0.000000 0.000000 0.000000 0.000000 0.000000 0.583280 0.158301 -9.584442 4.954384 15.839690 -66.812453 -221.309440 -152.601070 -202.542812 -2.152270 -12.713831 33.060516 3.683892 7.283155 -47.593028 4.654601 5.733974 -78.160040 3.628416 5.418065 -67.626215 0.000004 -0.000001 0.000000 48.424238 -8.391364 8.263708 18.561553 20.926924 -1.798310 -18.590136 -16.580351 9.072157 0.000001 0.000004 0.000000 3.811161 7.966257 -25.310046 2.784662 4.985552 -58.349486 2.004961 4.412646 -48.853707 0.000000 0.000000 -0.000002 -6.757087 4.222193 -76.098047 5.736975 5.851678 -88.896620 4.258149 5.630768 -74.212710 -0.000002 -0.000002 0.000003 3.904527 15.968352 -69.050221 6.149381 5.843485 -92.927442 4.556115 5.706448 -77.191595 -0.000001 -0.000002 0.000000 0.199177 -2.938273 3.315688 26.539878 -12.173693 81.433053 -412.219292 47.215199 399.427332 -6.863058 -25.299745 -24.964131 -6.076799 -6.577781 39.178334 3.603329 -4.536633 76.907636 2.514595 -4.136018 62.583193 -0.000003 -0.000001 0.000002 42.621330 -14.395860 -24.979646 17.186339 -10.625044 8.303651 -19.262028 -22.342266 -30.596423 0.000002 0.000000 0.000000 5.261489 -10.376227 43.181805 2.736738 -4.243555 65.623290 2.186672 -3.949103 57.934211 -0.000000 -0.000004 -0.000002 -7.289793 -3.277503 69.331884 4.243352 -4.638795 84.896615 2.791940 -4.268046 66.367084 0.000003 -0.000001 -0.000001 -7.287154 -4.413593 81.507618 4.006853 -4.611634 81.964551 2.159576 -3.932063 57.540164 0.000000 0.000001 0.000001 -37.120644 3.295474 30.454570 63.289475 -16.387757 -4.295625 -15.943615 4.197762 -20.011843 0.501559 -8.385606 3.656493 -0.000000 0.000002 -0.000000 -23.983432 7.108824 -41.907438 74.270487 -2.934116 1.281381 -30.489100 -4.698064 14.345607 -2.041471 -1.266188 0.863084 -0.000000 0.000000 0.000001 
57.389072 155.726212 627.612183 -8.241540 7.944007 11.866685 26.414208 -3.653038 -1.759223 3.038263 -0.326120 -3.195816 3.038131 -0.137844 -3.252885 -6.482266 -1.266764 -0.449982 -41.517547 -10.525829 -3.390602 -0.000001 0.000000 0.000000 -0.000001 0.000000 0.000000 -0.000001 0.000000 0.000000 0.691254 1.072562 -12.264983 -6.750477 16.403809 -57.360694 -239.225764 -169.909603 -197.327717 3.709629 -22.465310 46.555584 3.489990 7.199000 -46.474574 4.653620 5.733781 -78.150055 3.627468 5.417696 -67.616264 0.000001 0.000002 -0.000004 53.725534 -7.256658 7.078177 19.799035 19.880973 -2.279000 -18.898944 -17.113766 11.185202 0.000003 -0.000000 0.000000 3.622968 7.889308 -23.373548 2.678466 4.918744 -57.119284 1.911355 4.329297 -47.625526 0.000000 -0.000002 -0.000003 -6.807594 3.871845 -74.536625 5.749454 5.851925 -89.019105 4.270155 5.634151 -74.335087 0.000003 -0.000004 0.000000 3.231371 15.815870 -67.434745 6.178834 5.841886 -93.217028 4.584899 5.712898 -77.481106 -0.000001 0.000000 0.000001 0.187359 -2.268594 2.633615 30.827683 -8.280850 81.012191 -412.321554 49.726806 409.345641 -3.381639 -30.171831 -10.118707 -6.253297 -6.328560 38.086982 3.602536 -4.536449 76.897678 2.513872 -4.135646 62.573241 0.000000 0.000001 0.000001 48.185086 -15.616698 -23.086891 18.334256 -9.596176 8.831032 -20.909571 -21.286387 -32.619358 -0.000001 -0.000002 0.000002 4.984629 -10.388792 41.230095 2.646176 -4.201453 64.393241 2.102583 -3.895305 56.705105 0.000004 0.000000 -0.000001 -7.317773 -2.946733 67.767935 4.253246 -4.639671 85.018848 2.801026 -4.272020 66.489180 -0.000000 -0.000001 -0.000003 -7.630445 -3.998161 79.999294 4.030113 -4.614861 82.253578 2.179403 -3.944553 57.828691 0.000000 -0.000002 -0.000003 -36.302356 5.590704 29.766586 62.136464 -17.525497 -6.120053 -16.031180 4.120639 -19.207067 0.582571 -9.448237 4.878624 -0.000000 0.000000 -0.000000 -22.841172 9.700580 -43.497991 73.883393 -3.495955 1.147855 -30.275650 -5.002446 15.321052 -1.578977 -1.856016 0.783267 -0.000001 -0.000001 -0.000000 
